<mxfile host="app.diagrams.net" modified="2023-10-19T08:02:49.682Z" agent="Mozilla/5.0 (Windows NT 10.0; Win64; x64) AppleWebKit/537.36 (KHTML, like Gecko) Chrome/118.0.0.0 Safari/537.36" version="22.0.5" etag="ibB3iqDbFfpCpbXslI8f" type="github">
  <diagram name="Pagina-1" id="u6CgpH-XFfUeg-utRR1S">
    <mxGraphModel>
      <root>
        <mxCell id="0" />
        <mxCell id="1" parent="0" />
      </root>
    </mxGraphModel>
  </diagram>
</mxfile>
